<svg xmlns="http://www.w3.org/2000/svg" xmlns:xlink="http://www.w3.org/1999/xlink" xmlns:lucid="lucid" width="1226" height="2169.17"><g transform="translate(-400 -60)" lucid:page-tab-id="0_0"><path d="M0 0h1870.87v2581.67H0z" fill="#fff"/><path d="M700 146c0-3.3 2.7-6 6-6h148c3.3 0 6 2.7 6 6v228c0 3.3-2.7 6-6 6H706c-3.3 0-6-2.7-6-6z" stroke="#5e5e5e" stroke-width="3" fill="#99d2f2"/><path d="M600 86c0-3.3 2.7-6 6-6h332.57c3.3 0 6 2.7 6 6v88c0 3.3-2.7 6-6 6H606c-3.3 0-6-2.7-6-6z" stroke="#5e5e5e" stroke-width="3" fill="#e5e5e5"/><use xlink:href="#a" transform="matrix(1,0,0,1,612,92) translate(69.88271604938276 45.069444444444436)"/><path d="M860 166c0-3.3 2.7-6 6-6h72.57c3.3 0 6 2.7 6 6v208c0 3.3-2.7 6-6 6H866c-3.3 0-6-2.7-6-6zM600 166c0-3.3 2.7-6 6-6h88c3.3 0 6 2.7 6 6v208c0 3.3-2.7 6-6 6h-88c-3.3 0-6-2.7-6-6z" stroke="#5e5e5e" stroke-width="3" fill="#99d2f2"/><path d="M600 246c0-3.3 2.7-6 6-6h88c3.3 0 6 2.7 6 6v48c0 3.3-2.7 6-6 6h-88c-3.3 0-6-2.7-6-6z" stroke="#000" stroke-opacity="0" stroke-width="3" fill="#fff" fill-opacity="0"/><use xlink:href="#b" transform="matrix(1,0,0,1,605,245) translate(9.845679012345684 30.27777777777778)"/><use xlink:href="#c" transform="matrix(1,0,0,1,605,245) translate(51.820987654320994 30.27777777777778)"/><path d="M652.28 186c0-3.3 2.7-6 6-6h228c3.32 0 6 2.7 6 6v48c0 3.3-2.68 6-6 6h-228c-3.3 0-6-2.7-6-6z" stroke="#000" stroke-opacity="0" stroke-width="3" fill="#fff" fill-opacity="0"/><use xlink:href="#d" transform="matrix(1,0,0,1,657.2834645669293,185) translate(78.64197530864197 30.27777777777778)"/><path d="M652.28 246c0-3.3 2.7-6 6-6h228c3.32 0 6 2.7 6 6v48c0 3.3-2.68 6-6 6h-228c-3.3 0-6-2.7-6-6z" stroke="#000" stroke-opacity="0" stroke-width="3" fill="#fff" fill-opacity="0"/><use xlink:href="#e" transform="matrix(1,0,0,1,657.2834645669293,245) translate(72.5 30.27777777777778)"/><path d="M852.28 186c0-3.3 2.7-6 6-6h88c3.32 0 6 2.7 6 6v48c0 3.3-2.68 6-6 6h-88c-3.3 0-6-2.7-6-6z" stroke="#000" stroke-opacity="0" stroke-width="3" fill="#fff" fill-opacity="0"/><use xlink:href="#f" transform="matrix(1,0,0,1,857.2834645669292,185) translate(27.160493827160494 30.27777777777778)"/><path d="M780 246c0-3.3 2.7-6 6-6h228c3.3 0 6 2.7 6 6v48c0 3.3-2.7 6-6 6H786c-3.3 0-6-2.7-6-6z" stroke="#000" stroke-opacity="0" stroke-width="3" fill="#fff" fill-opacity="0"/><use xlink:href="#f" transform="matrix(1,0,0,1,785,245) translate(97.1604938271605 30.27777777777778)"/><path d="M600 186c0-3.3 2.7-6 6-6h88c3.3 0 6 2.7 6 6v48c0 3.3-2.7 6-6 6h-88c-3.3 0-6-2.7-6-6z" stroke="#000" stroke-opacity="0" stroke-width="3" fill="#fff" fill-opacity="0"/><use xlink:href="#b" transform="matrix(1,0,0,1,605,185) translate(9.845679012345684 30.27777777777778)"/><use xlink:href="#c" transform="matrix(1,0,0,1,605,185) translate(51.820987654320994 30.27777777777778)"/><path d="M652.28 304.33c0-3.3 2.7-6 6-6h228c3.32 0 6 2.7 6 6v51.34c0 3.3-2.68 6-6 6h-228c-3.3 0-6-2.7-6-6z" stroke="#000" stroke-opacity="0" stroke-width="3" fill="#fff" fill-opacity="0"/><use xlink:href="#g" transform="matrix(1,0,0,1,657.2834645669293,303.3333333333333) translate(85.37037037037038 31.27777777777778)"/><path d="M780 304.33c0-3.3 2.7-6 6-6h228c3.3 0 6 2.7 6 6v51.34c0 3.3-2.7 6-6 6H786c-3.3 0-6-2.7-6-6z" stroke="#000" stroke-opacity="0" stroke-width="3" fill="#fff" fill-opacity="0"/><use xlink:href="#h" transform="matrix(1,0,0,1,785,303.3333333333333) translate(84.13580246913581 31.27777777777778)"/><path d="M634.2 512.4V600M634.2 512.48v-2.57" stroke="#5e5e5e" stroke-width="5" fill="none"/><path d="M644.2 610h-20M634.2 620v-20M644.2 600h-20" stroke="#5e5e5e" stroke-width="5" fill="#fff"/><path d="M831.55 616V506c0-3.3 2.68-6 6-6h48.73c3.32 0 6-2.7 6-6v-75" stroke="#5e5e5e" stroke-width="5" fill="none"/><path d="M834.05 618.5h-5v-2.56h5z" fill="#5e5e5e"/><path d="M902.28 382.62l-10 20-10-20M892.28 382.62v20M902.28 412.62c0 5.52-4.47 10-10 10-5.52 0-10-4.48-10-10s4.48-10 10-10c5.53 0 10 4.48 10 10" stroke="#5e5e5e" stroke-width="5" fill="#fff"/><path d="M636.7 509.9H774c3.3 0 6-2.67 6-6V419M636.78 509.9h-2.57" stroke="#5e5e5e" stroke-width="5" fill="none"/><path d="M790 382.62l-10 20-10-20M780 382.62v20M790 412.62c0 5.52-4.48 10-10 10s-10-4.48-10-10 4.48-10 10-10 10 4.48 10 10" stroke="#5e5e5e" stroke-width="5" fill="#fff"/><path d="M534.2 686c0-3.3 2.7-6 6-6h200.3c3.3 0 6 2.7 6 6v228c0 3.3-2.7 6-6 6H540.2c-3.3 0-6-2.7-6-6z" stroke="#5e5e5e" stroke-width="3" fill="#99d2f2"/><path d="M434.2 626c0-3.3 2.7-6 6-6h458c3.33 0 6 2.7 6 6v88c0 3.3-2.67 6-6 6h-458c-3.3 0-6-2.7-6-6z" stroke="#5e5e5e" stroke-width="3" fill="#e5e5e5"/><use xlink:href="#i" transform="matrix(1,0,0,1,446.2125984251971,632) translate(183.54320987654324 45.069444444444436)"/><path d="M746.5 706c0-3.3 2.68-6 6-6h148c3.3 0 6 2.7 6 6v208c0 3.3-2.7 6-6 6h-148c-3.32 0-6-2.7-6-6zM434.2 706c0-3.3 2.7-6 6-6h88c3.33 0 6 2.7 6 6v208c0 3.3-2.67 6-6 6h-88c-3.3 0-6-2.7-6-6z" stroke="#5e5e5e" stroke-width="3" fill="#99d2f2"/><path d="M534.2 731c0-3.3 2.7-6 6-6h200.3c3.3 0 6 2.7 6 6v158c0 3.3-2.7 6-6 6H540.2c-3.3 0-6-2.7-6-6z" stroke="#000" stroke-opacity="0" stroke-width="3" fill="#fff" fill-opacity="0"/><use xlink:href="#j" transform="matrix(1,0,0,1,539.212598425197,730) translate(65.14197530864197 17.77777777777778)"/><use xlink:href="#k" transform="matrix(1,0,0,1,539.212598425197,730) translate(52.17901234567901 44.44444444444444)"/><use xlink:href="#l" transform="matrix(1,0,0,1,539.212598425197,730) translate(59.617283950617285 71.11111111111111)"/><use xlink:href="#m" transform="matrix(1,0,0,1,539.212598425197,730) translate(75.04938271604938 97.77777777777777)"/><use xlink:href="#n" transform="matrix(1,0,0,1,539.212598425197,730) translate(54.03086419753086 124.44444444444446)"/><use xlink:href="#o" transform="matrix(1,0,0,1,539.212598425197,730) translate(16.530864197530875 151.11111111111111)"/><path d="M434.2 726c0-3.3 2.7-6 6-6h88c3.33 0 6 2.7 6 6v48c0 3.3-2.67 6-6 6h-88c-3.3 0-6-2.7-6-6z" stroke="#000" stroke-opacity="0" stroke-width="3" fill="#fff" fill-opacity="0"/><use xlink:href="#p" transform="matrix(1,0,0,1,439.21259842519703,725) translate(30.185185185185187 30.27777777777778)"/><path d="M831.55 617.5v-5.35" stroke="#5e5e5e" stroke-width="2" fill="none"/><path d="M832.55 618.5h-2v-1.03h2z" fill="#5e5e5e"/><path d="M821.55 602.15h20M831.55 592.15v20M821.55 612.15h20" stroke="#5e5e5e" stroke-width="2" fill="#fff"/><path d="M720.35 706c0-3.3 2.7-6 6-6h200.3c3.3 0 6 2.7 6 6v208c0 3.3-2.7 6-6 6h-200.3c-3.3 0-6-2.7-6-6z" stroke="#000" stroke-opacity="0" stroke-width="3" fill="#fff" fill-opacity="0"/><use xlink:href="#q" transform="matrix(1,0,0,1,725.3543307086617,705) translate(85.44444444444446 48.812499999999986)"/><use xlink:href="#r" transform="matrix(1,0,0,1,725.3543307086617,705) translate(35.555555555555614 72.81249999999997)"/><use xlink:href="#s" transform="matrix(1,0,0,1,725.3543307086617,705) translate(35.555555555555614 96.81249999999996)"/><use xlink:href="#s" transform="matrix(1,0,0,1,725.3543307086617,705) translate(35.555555555555614 120.81249999999994)"/><use xlink:href="#t" transform="matrix(1,0,0,1,725.3543307086617,705) translate(30.000000000000057 144.81249999999994)"/><use xlink:href="#u" transform="matrix(1,0,0,1,725.3543307086617,705) translate(30.000000000000057 168.81249999999994)"/><path d="M575.7 1069.4V941.5M575.7 1071.9" stroke="#5e5e5e" stroke-width="5" fill="none"/><path d="M565.7 931.5h20M575.7 921.5v20M565.7 941.5h20" stroke="#5e5e5e" stroke-width="5" fill="#fff"/><path d="M575.7 977.5v153.25c0 3.3 2.7 6 6 6H649c3.3 0 6 2.7 6 6V1261M575.7 977.56V975" stroke="#5e5e5e" stroke-width="5" fill="none"/><path d="M645 1297.38l10-20 10 20M655 1297.38v-20M665 1267.38c0 5.52-4.48 10-10 10s-10-4.48-10-10 4.48-10 10-10 10 4.48 10 10" stroke="#5e5e5e" stroke-width="5" fill="#fff"/><path d="M520 1366c0-3.3 2.7-6 6-6h200.28c3.32 0 6 2.7 6 6v228c0 3.3-2.68 6-6 6H526c-3.3 0-6-2.7-6-6z" stroke="#5e5e5e" stroke-width="3" fill="#99d2f2"/><path d="M420 1306c0-3.3 2.7-6 6-6h458c3.3 0 6 2.7 6 6v88c0 3.3-2.7 6-6 6H426c-3.3 0-6-2.7-6-6z" stroke="#5e5e5e" stroke-width="3" fill="#e5e5e5"/><use xlink:href="#v" transform="matrix(1,0,0,1,432.00000000000006,1312) translate(141.22222222222223 45.069444444444436)"/><path d="M732.28 1386c0-3.3 2.7-6 6-6h148c3.32 0 6 2.7 6 6v208c0 3.3-2.68 6-6 6h-148c-3.3 0-6-2.7-6-6zM420 1386c0-3.3 2.7-6 6-6h88c3.3 0 6 2.7 6 6v208c0 3.3-2.7 6-6 6h-88c-3.3 0-6-2.7-6-6z" stroke="#5e5e5e" stroke-width="3" fill="#99d2f2"/><path d="M420 1406c0-3.3 2.7-6 6-6h88c3.3 0 6 2.7 6 6v48c0 3.3-2.7 6-6 6h-88c-3.3 0-6-2.7-6-6z" stroke="#000" stroke-opacity="0" stroke-width="3" fill="#fff" fill-opacity="0"/><use xlink:href="#w" transform="matrix(1,0,0,1,425,1405) translate(12.932098765432102 30.27777777777778)"/><path d="M706.14 1386c0-3.3 2.7-6 6-6h200.3c3.3 0 6 2.7 6 6v208c0 3.3-2.7 6-6 6h-200.3c-3.3 0-6-2.7-6-6z" stroke="#000" stroke-opacity="0" stroke-width="3" fill="#fff" fill-opacity="0"/><use xlink:href="#x" transform="matrix(1,0,0,1,711.1417322834646,1385) translate(41.61111111111116 61.937499999999986)"/><use xlink:href="#y" transform="matrix(1,0,0,1,711.1417322834646,1385) translate(101.5 85.93749999999997)"/><use xlink:href="#q" transform="matrix(1,0,0,1,711.1417322834646,1385) translate(85.44444444444446 109.93749999999996)"/><use xlink:href="#y" transform="matrix(1,0,0,1,711.1417322834646,1385) translate(101.5 133.93749999999994)"/><use xlink:href="#z" transform="matrix(1,0,0,1,711.1417322834646,1385) translate(85.44444444444446 157.93749999999994)"/><path d="M420 1456c0-3.3 2.7-6 6-6h88c3.3 0 6 2.7 6 6v48c0 3.3-2.7 6-6 6h-88c-3.3 0-6-2.7-6-6z" stroke="#000" stroke-opacity="0" stroke-width="3" fill="#fff" fill-opacity="0"/><use xlink:href="#w" transform="matrix(1,0,0,1,425,1455) translate(12.932098765432102 30.27777777777778)"/><path d="M520 1466c0-3.3 2.7-6 6-6h200.28c3.32 0 6 2.7 6 6v48c0 3.3-2.68 6-6 6H526c-3.3 0-6-2.7-6-6z" stroke="#000" stroke-opacity="0" stroke-width="3" fill="#fff" fill-opacity="0"/><use xlink:href="#A" transform="matrix(1,0,0,1,525,1465) translate(65.14197530864197 30.27777777777778)"/><path d="M520 1406c0-3.3 2.7-6 6-6h200.28c3.32 0 6 2.7 6 6v51.33c0 3.32-2.68 6-6 6H526c-3.3 0-6-2.68-6-6z" stroke="#000" stroke-opacity="0" stroke-width="3" fill="#fff" fill-opacity="0"/><use xlink:href="#B" transform="matrix(1,0,0,1,525,1405) translate(77.42592592592592 31.27777777777778)"/><path d="M520 1516c0-3.3 2.7-6 6-6h200.28c3.32 0 6 2.7 6 6v48c0 3.3-2.68 6-6 6H526c-3.3 0-6-2.7-6-6z" stroke="#000" stroke-opacity="0" stroke-width="3" fill="#fff" fill-opacity="0"/><use xlink:href="#C" transform="matrix(1,0,0,1,525,1515) translate(65.72839506172839 30.27777777777778)"/><path d="M680 997.5v-56M680 997.44v2.56" stroke="#5e5e5e" stroke-width="5" fill="none"/><path d="M670 931.5h20M680 921.5v20M670 941.5h20" stroke="#5e5e5e" stroke-width="5" fill="#fff"/><path d="M682.5 1000h500.7c3.33 0 6 2.7 6 6v275.44M682.56 1000H680" stroke="#5e5e5e" stroke-width="5" fill="none"/><path d="M1179.2 1297.38l10-20 10 20M1189.2 1297.38v-20" stroke="#5e5e5e" stroke-width="5" fill="#fff"/><path d="M1054.2 1366c0-3.3 2.7-6 6-6h200.3c3.3 0 6 2.7 6 6v148c0 3.3-2.7 6-6 6h-200.3c-3.3 0-6-2.7-6-6z" stroke="#5e5e5e" stroke-width="3" fill="#99d2f2"/><path d="M954.2 1306c0-3.3 2.7-6 6-6h458c3.33 0 6 2.7 6 6v88c0 3.3-2.67 6-6 6h-458c-3.3 0-6-2.7-6-6z" stroke="#5e5e5e" stroke-width="3" fill="#e5e5e5"/><use xlink:href="#D" transform="matrix(1,0,0,1,966.212598425197,1312) translate(187.49382716049385 45.069444444444436)"/><path d="M1266.5 1386c0-3.3 2.68-6 6-6h148c3.3 0 6 2.7 6 6v128c0 3.3-2.7 6-6 6h-148c-3.32 0-6-2.7-6-6zM954.2 1386c0-3.3 2.7-6 6-6h88c3.33 0 6 2.7 6 6v128c0 3.3-2.67 6-6 6h-88c-3.3 0-6-2.7-6-6z" stroke="#5e5e5e" stroke-width="3" fill="#99d2f2"/><path d="M954.2 1406c0-3.3 2.7-6 6-6h88c3.33 0 6 2.7 6 6v48c0 3.3-2.67 6-6 6h-88c-3.3 0-6-2.7-6-6z" stroke="#000" stroke-opacity="0" stroke-width="3" fill="#fff" fill-opacity="0"/><use xlink:href="#w" transform="matrix(1,0,0,1,959.212598425197,1405) translate(12.932098765432102 30.27777777777778)"/><path d="M1240.35 1356c0-3.3 2.7-6 6-6h200.3c3.3 0 6 2.7 6 6v208c0 3.3-2.7 6-6 6h-200.3c-3.3 0-6-2.7-6-6z" stroke="#000" stroke-opacity="0" stroke-width="3" fill="#fff" fill-opacity="0"/><use xlink:href="#q" transform="matrix(1,0,0,1,1245.3543307086616,1355) translate(85.44444444444446 88.18749999999999)"/><use xlink:href="#y" transform="matrix(1,0,0,1,1245.3543307086616,1355) translate(101.5 112.18749999999997)"/><use xlink:href="#z" transform="matrix(1,0,0,1,1245.3543307086616,1355) translate(85.44444444444446 136.18749999999997)"/><path d="M954.2 1456c0-3.3 2.7-6 6-6h88c3.33 0 6 2.7 6 6v48c0 3.3-2.67 6-6 6h-88c-3.3 0-6-2.7-6-6z" stroke="#000" stroke-opacity="0" stroke-width="3" fill="#fff" fill-opacity="0"/><use xlink:href="#w" transform="matrix(1,0,0,1,959.212598425197,1455) translate(12.932098765432102 30.27777777777778)"/><path d="M1054.2 1406c0-3.3 2.7-6 6-6h200.3c3.3 0 6 2.7 6 6v48c0 3.3-2.7 6-6 6h-200.3c-3.3 0-6-2.7-6-6z" stroke="#000" stroke-opacity="0" stroke-width="3" fill="#fff" fill-opacity="0"/><use xlink:href="#A" transform="matrix(1,0,0,1,1059.212598425197,1405) translate(65.14197530864197 30.27777777777778)"/><path d="M1054.2 1456c0-3.3 2.7-6 6-6h200.3c3.3 0 6 2.7 6 6v48c0 3.3-2.7 6-6 6h-200.3c-3.3 0-6-2.7-6-6z" stroke="#000" stroke-opacity="0" stroke-width="3" fill="#fff" fill-opacity="0"/><use xlink:href="#C" transform="matrix(1,0,0,1,1059.212598425197,1455) translate(65.72839506172839 30.27777777777778)"/><path d="M602.5 1918.5H774c3.3 0 6-2.7 6-6V1736c0-3.3 2.7-6 6-6h368c3.3 0 6 2.7 6 6v117.25c0 3.3-2.7 6-6 6h-78c-3.3 0-6 2.7-6 6v13.25M602.56 1918.5H600" stroke="#5e5e5e" stroke-width="5" fill="none"/><path d="M1080 1888.5h-20M1070 1898.5v-20M1080 1878.5h-20" stroke="#5e5e5e" stroke-width="5" fill="#fff"/><path d="M600 1916v-150c0-3.3 2.7-6 6-6h62c3.3 0 6-2.7 6-6v-115M600 1915.94v2.56" stroke="#5e5e5e" stroke-width="5" fill="none"/><path d="M684 1602.62l-10 20-10-20M674 1602.62v20M684 1632.62c0 5.52-4.48 10-10 10s-10-4.48-10-10 4.48-10 10-10 10 4.48 10 10" stroke="#5e5e5e" stroke-width="5" fill="#fff"/><path d="M1028.07 1966c0-3.3 2.7-6 6-6h200.28c3.32 0 6 2.7 6 6v228c0 3.3-2.68 6-6 6h-200.28c-3.3 0-6-2.7-6-6z" stroke="#5e5e5e" stroke-width="3" fill="#99d2f2"/><path d="M928.07 1906c0-3.3 2.7-6 6-6h458c3.3 0 6 2.7 6 6v88c0 3.3-2.7 6-6 6h-458c-3.3 0-6-2.7-6-6z" stroke="#5e5e5e" stroke-width="3" fill="#e5e5e5"/><use xlink:href="#E" transform="matrix(1,0,0,1,940.0708661417323,1912) translate(174.65432098765433 45.069444444444436)"/><path d="M1240.35 2004.33c0-3.3 2.7-6 6-6h148c3.32 0 6 2.7 6 6V2194c0 3.3-2.68 6-6 6h-148c-3.3 0-6-2.7-6-6zM928.07 2004.33c0-3.3 2.7-6 6-6h88c3.3 0 6 2.7 6 6V2194c0 3.3-2.7 6-6 6h-88c-3.3 0-6-2.7-6-6z" stroke="#5e5e5e" stroke-width="3" fill="#99d2f2"/><path d="M928.07 2026c0-3.3 2.7-6 6-6h88c3.3 0 6 2.7 6 6v51.33c0 3.32-2.7 6-6 6h-88c-3.3 0-6-2.68-6-6z" stroke="#000" stroke-opacity="0" stroke-width="3" fill="#fff" fill-opacity="0"/><use xlink:href="#F" transform="matrix(1,0,0,1,933.0708661417323,2025) translate(30.185185185185187 17.77777777777778)"/><use xlink:href="#G" transform="matrix(1,0,0,1,933.0708661417323,2025) translate(30.833333333333336 44.44444444444444)"/><path d="M1214.2 1995.17c0-3.32 2.7-6 6-6h200.3c3.3 0 6 2.68 6 6v208c0 3.3-2.7 6-6 6h-200.3c-3.3 0-6-2.7-6-6z" stroke="#000" stroke-opacity="0" stroke-width="3" fill="#fff" fill-opacity="0"/><use xlink:href="#q" transform="matrix(1,0,0,1,1219.212598425197,1994.1666666666665) translate(85.44444444444446 35.687499999999986)"/><use xlink:href="#y" transform="matrix(1,0,0,1,1219.212598425197,1994.1666666666665) translate(101.5 59.68749999999997)"/><use xlink:href="#q" transform="matrix(1,0,0,1,1219.212598425197,1994.1666666666665) translate(85.44444444444446 83.68749999999996)"/><use xlink:href="#y" transform="matrix(1,0,0,1,1219.212598425197,1994.1666666666665) translate(101.5 107.68749999999994)"/><use xlink:href="#s" transform="matrix(1,0,0,1,1219.212598425197,1994.1666666666665) translate(35.555555555555614 131.68749999999994)"/><use xlink:href="#y" transform="matrix(1,0,0,1,1219.212598425197,1994.1666666666665) translate(101.5 155.68749999999994)"/><use xlink:href="#H" transform="matrix(1,0,0,1,1219.212598425197,1994.1666666666665) translate(41.61111111111116 179.68749999999994)"/><path d="M1030.35 2046c0-3.3 2.7-6 6-6h200.3c3.3 0 6 2.7 6 6v48c0 3.3-2.7 6-6 6h-200.3c-3.3 0-6-2.7-6-6z" stroke="#000" stroke-opacity="0" stroke-width="3" fill="#fff" fill-opacity="0"/><g><use xlink:href="#A" transform="matrix(1,0,0,1,1035.3543307086616,2045) translate(65.14197530864197 30.27777777777778)"/></g><path d="M1028.07 2004.33c0-3.3 2.7-6 6-6h200.28c3.32 0 6 2.7 6 6v48c0 3.32-2.68 6-6 6h-200.28c-3.3 0-6-2.68-6-6z" stroke="#000" stroke-opacity="0" stroke-width="3" fill="#fff" fill-opacity="0"/><g><use xlink:href="#C" transform="matrix(1,0,0,1,1033.070866141732,2003.3333333333333) translate(65.72839506172839 30.27777777777778)"/></g><path d="M1030.35 2106c0-3.3 2.7-6 6-6h200.3c3.3 0 6 2.7 6 6v78c0 3.3-2.7 6-6 6h-200.3c-3.3 0-6-2.7-6-6z" stroke="#000" stroke-opacity="0" stroke-width="3" fill="#fff" fill-opacity="0"/><g><use xlink:href="#I" transform="matrix(1,0,0,1,1035.3543307086616,2105) translate(84.27777777777777 17.77777777777778)"/><use xlink:href="#J" transform="matrix(1,0,0,1,1035.3543307086616,2105) translate(101.5 44.44444444444444)"/><use xlink:href="#K" transform="matrix(1,0,0,1,1035.3543307086616,2105) translate(77.42592592592592 71.11111111111111)"/></g><path d="M831.55 616V506c0-3.3 2.68-6 6-6h48.73c3.32 0 6-2.7 6-6v-75M831.55 615.94v2.56" stroke="#5e5e5e" stroke-width="5" fill="none"/><path d="M902.28 382.62l-10 20-10-20M892.28 382.62v20M902.28 412.62c0 5.52-4.47 10-10 10-5.52 0-10-4.48-10-10s4.48-10 10-10c5.53 0 10 4.48 10 10" stroke="#5e5e5e" stroke-width="5" fill="#fff"/><path d="M1204 1861v-145c0-3.3-2.7-6-6-6h-31.65c-3.3 0-6-2.7-6-6v-145" stroke="#5e5e5e" stroke-width="5" fill="none"/><path d="M1214 1888.5h-20M1204 1898.5v-20M1214 1868.5c0 5.52-4.48 10-10 10s-10-4.48-10-10 4.48-10 10-10 10 4.48 10 10M1170.35 1522.62l-10 20-10-20M1160.35 1522.62v20M1170.35 1552.62c0 5.52-4.47 10-10 10-5.52 0-10-4.48-10-10s4.48-10 10-10c5.53 0 10 4.48 10 10" stroke="#5e5e5e" stroke-width="5" fill="#fff"/><path d="M826.5 940v24c0 3.3 2.68 6 6 6H1594c3.3 0 6 2.7 6 6v596.5c0 3.3-2.7 6-6 6h-268c-3.3 0-6 2.7-6 6V1861" stroke="#5e5e5e" stroke-width="5" fill="none"/><path d="M816.5 930h20M826.5 920v20M816.5 940h20M1310 1897.38l10-20 10 20M1320 1897.38v-20M1330 1867.38c0 5.52-4.48 10-10 10s-10-4.48-10-10 4.48-10 10-10 10 4.48 10 10" stroke="#5e5e5e" stroke-width="5" fill="#fff"/><defs><path fill="#333" d="M76-208v77h127v40H76V0H24v-248h183v40H76" id="L"/><path fill="#333" d="M135-150c-39-12-60 13-60 57V0H25l-1-190h47c2 13-1 29 3 40 6-28 27-53 61-41v41" id="M"/><path fill="#333" d="M25-224v-37h50v37H25zM25 0v-190h50V0H25" id="N"/><path fill="#333" d="M185-48c-13 30-37 53-82 52C43 2 14-33 14-96s30-98 90-98c62 0 83 45 84 108H66c0 31 8 55 39 56 18 0 30-7 34-22zm-45-69c5-46-57-63-70-21-2 6-4 13-4 21h74" id="O"/><path fill="#333" d="M135-194c87-1 58 113 63 194h-50c-7-57 23-157-34-157-59 0-34 97-39 157H25l-1-190h47c2 12-1 28 3 38 12-26 28-41 61-42" id="P"/><path fill="#333" d="M88-194c31-1 46 15 58 34l-1-101h50l1 261h-48c-2-10 0-23-3-31C134-8 116 4 84 4 32 4 16-41 15-95c0-56 19-97 73-99zm17 164c33 0 40-30 41-66 1-37-9-64-41-64s-38 30-39 65c0 43 13 65 39 65" id="Q"/><path fill="#333" d="M137-138c1-29-70-34-71-4 15 46 118 7 119 86 1 83-164 76-172 9l43-7c4 19 20 25 44 25 33 8 57-30 24-41C81-84 22-81 20-136c-2-80 154-74 161-7" id="R"/><path fill="#333" d="M114-157C55-157 80-60 75 0H25v-261h50l-1 109c12-26 28-41 61-42 86-1 58 113 63 194h-50c-7-57 23-157-34-157" id="S"/><path fill="#333" d="M135-194c53 0 70 44 70 98 0 56-19 98-73 100-31 1-45-17-59-34 3 33 2 69 2 105H25l-1-265h48c2 10 0 23 3 31 11-24 29-35 60-35zM114-30c33 0 39-31 40-66 0-38-9-64-40-64-56 0-55 130 0 130" id="T"/><g id="a"><use transform="matrix(0.0987654320987654,0,0,0.0987654320987654,0,0)" xlink:href="#L"/><use transform="matrix(0.0987654320987654,0,0,0.0987654320987654,21.629629629629623,0)" xlink:href="#M"/><use transform="matrix(0.0987654320987654,0,0,0.0987654320987654,35.45679012345678,0)" xlink:href="#N"/><use transform="matrix(0.0987654320987654,0,0,0.0987654320987654,45.333333333333314,0)" xlink:href="#O"/><use transform="matrix(0.0987654320987654,0,0,0.0987654320987654,65.08641975308639,0)" xlink:href="#P"/><use transform="matrix(0.0987654320987654,0,0,0.0987654320987654,86.71604938271601,0)" xlink:href="#Q"/><use transform="matrix(0.0987654320987654,0,0,0.0987654320987654,108.34567901234561,0)" xlink:href="#R"/><use transform="matrix(0.0987654320987654,0,0,0.0987654320987654,128.0987654320987,0)" xlink:href="#S"/><use transform="matrix(0.0987654320987654,0,0,0.0987654320987654,149.72839506172832,0)" xlink:href="#N"/><use transform="matrix(0.0987654320987654,0,0,0.0987654320987654,159.60493827160485,0)" xlink:href="#T"/></g><path fill="#333" d="M30-248c87 1 191-15 191 75 0 78-77 80-158 76V0H30v-248zm33 125c57 0 124 11 124-50 0-59-68-47-124-48v98" id="U"/><path fill="#333" d="M194 0L95-120 63-95V0H30v-248h33v124l119-124h40L117-140 236 0h-42" id="V"/><path fill="#333" d="M68-38c1 34 0 65-14 84H32c9-13 17-26 17-46H33v-38h35" id="W"/><g id="b"><use transform="matrix(0.06172839506172839,0,0,0.06172839506172839,0,0)" xlink:href="#U"/><use transform="matrix(0.06172839506172839,0,0,0.06172839506172839,14.814814814814813,0)" xlink:href="#V"/><use transform="matrix(0.06172839506172839,0,0,0.06172839506172839,29.629629629629626,0)" xlink:href="#W"/></g><path fill="#333" d="M63-220v92h138v28H63V0H30v-248h175v28H63" id="X"/><g id="c"><use transform="matrix(0.06172839506172839,0,0,0.06172839506172839,0,0)" xlink:href="#X"/><use transform="matrix(0.06172839506172839,0,0,0.06172839506172839,13.518518518518517,0)" xlink:href="#V"/></g><path fill="#333" d="M84 4C-5 8 30-112 23-190h32v120c0 31 7 50 39 49 72-2 45-101 50-169h31l1 190h-30c-1-10 1-25-2-33-11 22-28 36-60 37" id="Y"/><path fill="#333" d="M135-143c-3-34-86-38-87 0 15 53 115 12 119 90S17 21 10-45l28-5c4 36 97 45 98 0-10-56-113-15-118-90-4-57 82-63 122-42 12 7 21 19 24 35" id="Z"/><path fill="#333" d="M100-194c63 0 86 42 84 106H49c0 40 14 67 53 68 26 1 43-12 49-29l28 8c-11 28-37 45-77 45C44 4 14-33 15-96c1-61 26-98 85-98zm52 81c6-60-76-77-97-28-3 7-6 17-6 28h103" id="aa"/><path fill="#333" d="M114-163C36-179 61-72 57 0H25l-1-190h30c1 12-1 29 2 39 6-27 23-49 58-41v29" id="ab"/><path fill="#333" d="M-5 72V49h209v23H-5" id="ac"/><path fill="#333" d="M24-231v-30h32v30H24zM24 0v-190h32V0H24" id="ad"/><path fill="#333" d="M85-194c31 0 48 13 60 33l-1-100h32l1 261h-30c-2-10 0-23-3-31C134-8 116 4 85 4 32 4 16-35 15-94c0-66 23-100 70-100zm9 24c-40 0-46 34-46 75 0 40 6 74 45 74 42 0 51-32 51-76 0-42-9-74-50-73" id="ae"/><g id="d"><use transform="matrix(0.06172839506172839,0,0,0.06172839506172839,0,0)" xlink:href="#Y"/><use transform="matrix(0.06172839506172839,0,0,0.06172839506172839,12.345679012345679,0)" xlink:href="#Z"/><use transform="matrix(0.06172839506172839,0,0,0.06172839506172839,23.45679012345679,0)" xlink:href="#aa"/><use transform="matrix(0.06172839506172839,0,0,0.06172839506172839,35.80246913580247,0)" xlink:href="#ab"/><use transform="matrix(0.06172839506172839,0,0,0.06172839506172839,43.148148148148145,0)" xlink:href="#ac"/><use transform="matrix(0.06172839506172839,0,0,0.06172839506172839,55.49382716049382,0)" xlink:href="#ad"/><use transform="matrix(0.06172839506172839,0,0,0.06172839506172839,60.37037037037037,0)" xlink:href="#ae"/></g><path fill="#333" d="M101-234c-31-9-42 10-38 44h38v23H63V0H32v-167H5v-23h27c-7-52 17-82 69-68v24" id="af"/><path fill="#333" d="M117-194c89-4 53 116 60 194h-32v-121c0-31-8-49-39-48C34-167 62-67 57 0H25l-1-190h30c1 10-1 24 2 32 11-22 29-35 61-36" id="ag"/><g id="e"><use transform="matrix(0.06172839506172839,0,0,0.06172839506172839,0,0)" xlink:href="#af"/><use transform="matrix(0.06172839506172839,0,0,0.06172839506172839,6.172839506172839,0)" xlink:href="#ab"/><use transform="matrix(0.06172839506172839,0,0,0.06172839506172839,13.518518518518519,0)" xlink:href="#ad"/><use transform="matrix(0.06172839506172839,0,0,0.06172839506172839,18.395061728395063,0)" xlink:href="#aa"/><use transform="matrix(0.06172839506172839,0,0,0.06172839506172839,30.74074074074074,0)" xlink:href="#ag"/><use transform="matrix(0.06172839506172839,0,0,0.06172839506172839,43.08641975308642,0)" xlink:href="#ae"/><use transform="matrix(0.06172839506172839,0,0,0.06172839506172839,55.432098765432094,0)" xlink:href="#ac"/><use transform="matrix(0.06172839506172839,0,0,0.06172839506172839,67.77777777777777,0)" xlink:href="#ad"/><use transform="matrix(0.06172839506172839,0,0,0.06172839506172839,72.65432098765432,0)" xlink:href="#ae"/></g><path fill="#333" d="M33 0v-248h34V0H33" id="ah"/><path fill="#333" d="M190 0L58-211 59 0H30v-248h39L202-35l-2-213h31V0h-41" id="ai"/><path fill="#333" d="M127-220V0H93v-220H8v-28h204v28h-85" id="aj"/><g id="f"><use transform="matrix(0.06172839506172839,0,0,0.06172839506172839,0,0)" xlink:href="#ah"/><use transform="matrix(0.06172839506172839,0,0,0.06172839506172839,6.172839506172839,0)" xlink:href="#ai"/><use transform="matrix(0.06172839506172839,0,0,0.06172839506172839,22.160493827160494,0)" xlink:href="#aj"/></g><path fill="#333" d="M59-47c-2 24 18 29 38 22v24C64 9 27 4 27-40v-127H5v-23h24l9-43h21v43h35v23H59v120" id="ak"/><path fill="#333" d="M141-36C126-15 110 5 73 4 37 3 15-17 15-53c-1-64 63-63 125-63 3-35-9-54-41-54-24 1-41 7-42 31l-33-3c5-37 33-52 76-52 45 0 72 20 72 64v82c-1 20 7 32 28 27v20c-31 9-61-2-59-35zM48-53c0 20 12 33 32 33 41-3 63-29 60-74-43 2-92-5-92 41" id="al"/><g id="g"><use transform="matrix(0.06172839506172839,0,0,0.06172839506172839,0,0)" xlink:href="#Z"/><use transform="matrix(0.06172839506172839,0,0,0.06172839506172839,11.11111111111111,0)" xlink:href="#ak"/><use transform="matrix(0.06172839506172839,0,0,0.06172839506172839,17.28395061728395,0)" xlink:href="#al"/><use transform="matrix(0.06172839506172839,0,0,0.06172839506172839,29.629629629629626,0)" xlink:href="#ak"/><use transform="matrix(0.06172839506172839,0,0,0.06172839506172839,35.80246913580247,0)" xlink:href="#Y"/><use transform="matrix(0.06172839506172839,0,0,0.06172839506172839,48.148148148148145,0)" xlink:href="#Z"/></g><path fill="#333" d="M160-131c35 5 61 23 61 61C221 17 115-2 30 0v-248c76 3 177-17 177 60 0 33-19 50-47 57zm-97-11c50-1 110 9 110-42 0-47-63-36-110-37v79zm0 115c55-2 124 14 124-45 0-56-70-42-124-44v89" id="am"/><path fill="#333" d="M140-251c81 0 123 46 123 126C263-46 219 4 140 4 59 4 17-45 17-125s42-126 123-126zm0 227c63 0 89-41 89-101s-29-99-89-99c-61 0-89 39-89 99S79-25 140-24" id="an"/><path fill="#333" d="M30 0v-248h33v221h125V0H30" id="ao"/><g id="h"><use transform="matrix(0.06172839506172839,0,0,0.06172839506172839,0,0)" xlink:href="#am"/><use transform="matrix(0.06172839506172839,0,0,0.06172839506172839,14.814814814814813,0)" xlink:href="#an"/><use transform="matrix(0.06172839506172839,0,0,0.06172839506172839,32.09876543209876,0)" xlink:href="#an"/><use transform="matrix(0.06172839506172839,0,0,0.06172839506172839,49.38271604938271,0)" xlink:href="#ao"/></g><path fill="#333" d="M238-95c0 69-44 99-111 99C63 4 22-25 22-93v-155h51v151c-1 38 19 59 55 60 90 1 49-130 58-211h52v153" id="ap"/><g id="i"><use transform="matrix(0.0987654320987654,0,0,0.0987654320987654,0,0)" xlink:href="#ap"/><use transform="matrix(0.0987654320987654,0,0,0.0987654320987654,25.58024691358024,0)" xlink:href="#R"/><use transform="matrix(0.0987654320987654,0,0,0.0987654320987654,45.333333333333314,0)" xlink:href="#O"/><use transform="matrix(0.0987654320987654,0,0,0.0987654320987654,65.08641975308639,0)" xlink:href="#M"/></g><g id="j"><use transform="matrix(0.06172839506172839,0,0,0.06172839506172839,0,0)" xlink:href="#Y"/><use transform="matrix(0.06172839506172839,0,0,0.06172839506172839,12.345679012345679,0)" xlink:href="#Z"/><use transform="matrix(0.06172839506172839,0,0,0.06172839506172839,23.45679012345679,0)" xlink:href="#aa"/><use transform="matrix(0.06172839506172839,0,0,0.06172839506172839,35.80246913580247,0)" xlink:href="#ab"/><use transform="matrix(0.06172839506172839,0,0,0.06172839506172839,43.148148148148145,0)" xlink:href="#ac"/><use transform="matrix(0.06172839506172839,0,0,0.06172839506172839,55.49382716049382,0)" xlink:href="#ad"/><use transform="matrix(0.06172839506172839,0,0,0.06172839506172839,60.37037037037037,0)" xlink:href="#ae"/></g><path fill="#333" d="M210-169c-67 3-38 105-44 169h-31v-121c0-29-5-50-35-48C34-165 62-65 56 0H25l-1-190h30c1 10-1 24 2 32 10-44 99-50 107 0 11-21 27-35 58-36 85-2 47 119 55 194h-31v-121c0-29-5-49-35-48" id="aq"/><g id="k"><use transform="matrix(0.06172839506172839,0,0,0.06172839506172839,0,0)" xlink:href="#Y"/><use transform="matrix(0.06172839506172839,0,0,0.06172839506172839,12.345679012345679,0)" xlink:href="#Z"/><use transform="matrix(0.06172839506172839,0,0,0.06172839506172839,23.45679012345679,0)" xlink:href="#aa"/><use transform="matrix(0.06172839506172839,0,0,0.06172839506172839,35.80246913580247,0)" xlink:href="#ab"/><use transform="matrix(0.06172839506172839,0,0,0.06172839506172839,43.148148148148145,0)" xlink:href="#ag"/><use transform="matrix(0.06172839506172839,0,0,0.06172839506172839,55.49382716049382,0)" xlink:href="#al"/><use transform="matrix(0.06172839506172839,0,0,0.06172839506172839,67.8395061728395,0)" xlink:href="#aq"/><use transform="matrix(0.06172839506172839,0,0,0.06172839506172839,86.29629629629629,0)" xlink:href="#aa"/></g><path fill="#333" d="M24 0v-261h32V0H24" id="ar"/><g id="l"><use transform="matrix(0.06172839506172839,0,0,0.06172839506172839,0,0)" xlink:href="#af"/><use transform="matrix(0.06172839506172839,0,0,0.06172839506172839,6.172839506172839,0)" xlink:href="#Y"/><use transform="matrix(0.06172839506172839,0,0,0.06172839506172839,18.51851851851852,0)" xlink:href="#ar"/><use transform="matrix(0.06172839506172839,0,0,0.06172839506172839,23.395061728395063,0)" xlink:href="#ar"/><use transform="matrix(0.06172839506172839,0,0,0.06172839506172839,28.271604938271608,0)" xlink:href="#ag"/><use transform="matrix(0.06172839506172839,0,0,0.06172839506172839,40.617283950617285,0)" xlink:href="#al"/><use transform="matrix(0.06172839506172839,0,0,0.06172839506172839,52.96296296296296,0)" xlink:href="#aq"/><use transform="matrix(0.06172839506172839,0,0,0.06172839506172839,71.41975308641975,0)" xlink:href="#aa"/></g><g id="m"><use transform="matrix(0.06172839506172839,0,0,0.06172839506172839,0,0)" xlink:href="#aa"/><use transform="matrix(0.06172839506172839,0,0,0.06172839506172839,12.345679012345679,0)" xlink:href="#aq"/><use transform="matrix(0.06172839506172839,0,0,0.06172839506172839,30.80246913580247,0)" xlink:href="#al"/><use transform="matrix(0.06172839506172839,0,0,0.06172839506172839,43.148148148148145,0)" xlink:href="#ad"/><use transform="matrix(0.06172839506172839,0,0,0.06172839506172839,48.02469135802469,0)" xlink:href="#ar"/></g><path fill="#333" d="M115-194c55 1 70 41 70 98S169 2 115 4C84 4 66-9 55-30l1 105H24l-1-265h31l2 30c10-21 28-34 59-34zm-8 174c40 0 45-34 45-75s-6-73-45-74c-42 0-51 32-51 76 0 43 10 73 51 73" id="as"/><path fill="#333" d="M206 0h-36l-40-164L89 0H53L-1-190h32L70-26l43-164h34l41 164 42-164h31" id="at"/><path fill="#333" d="M100-194c62-1 85 37 85 99 1 63-27 99-86 99S16-35 15-95c0-66 28-99 85-99zM99-20c44 1 53-31 53-75 0-43-8-75-51-75s-53 32-53 75 10 74 51 75" id="au"/><g id="n"><use transform="matrix(0.06172839506172839,0,0,0.06172839506172839,0,0)" xlink:href="#as"/><use transform="matrix(0.06172839506172839,0,0,0.06172839506172839,12.345679012345679,0)" xlink:href="#al"/><use transform="matrix(0.06172839506172839,0,0,0.06172839506172839,24.691358024691358,0)" xlink:href="#Z"/><use transform="matrix(0.06172839506172839,0,0,0.06172839506172839,35.80246913580247,0)" xlink:href="#Z"/><use transform="matrix(0.06172839506172839,0,0,0.06172839506172839,46.91358024691358,0)" xlink:href="#at"/><use transform="matrix(0.06172839506172839,0,0,0.06172839506172839,62.901234567901234,0)" xlink:href="#au"/><use transform="matrix(0.06172839506172839,0,0,0.06172839506172839,75.24691358024691,0)" xlink:href="#ab"/><use transform="matrix(0.06172839506172839,0,0,0.06172839506172839,82.5925925925926,0)" xlink:href="#ae"/></g><path fill="#333" d="M177-190C167-65 218 103 67 71c-23-6-38-20-44-43l32-5c15 47 100 32 89-28v-30C133-14 115 1 83 1 29 1 15-40 15-95c0-56 16-97 71-98 29-1 48 16 59 35 1-10 0-23 2-32h30zM94-22c36 0 50-32 50-73 0-42-14-75-50-75-39 0-46 34-46 75s6 73 46 73" id="av"/><g id="o"><use transform="matrix(0.06172839506172839,0,0,0.06172839506172839,0,0)" xlink:href="#as"/><use transform="matrix(0.06172839506172839,0,0,0.06172839506172839,12.345679012345679,0)" xlink:href="#ab"/><use transform="matrix(0.06172839506172839,0,0,0.06172839506172839,19.691358024691358,0)" xlink:href="#au"/><use transform="matrix(0.06172839506172839,0,0,0.06172839506172839,32.03703703703704,0)" xlink:href="#af"/><use transform="matrix(0.06172839506172839,0,0,0.06172839506172839,38.20987654320988,0)" xlink:href="#ad"/><use transform="matrix(0.06172839506172839,0,0,0.06172839506172839,43.086419753086425,0)" xlink:href="#ar"/><use transform="matrix(0.06172839506172839,0,0,0.06172839506172839,47.96296296296297,0)" xlink:href="#aa"/><use transform="matrix(0.06172839506172839,0,0,0.06172839506172839,60.308641975308646,0)" xlink:href="#ac"/><use transform="matrix(0.06172839506172839,0,0,0.06172839506172839,72.65432098765433,0)" xlink:href="#ad"/><use transform="matrix(0.06172839506172839,0,0,0.06172839506172839,77.53086419753087,0)" xlink:href="#aq"/><use transform="matrix(0.06172839506172839,0,0,0.06172839506172839,95.98765432098766,0)" xlink:href="#al"/><use transform="matrix(0.06172839506172839,0,0,0.06172839506172839,108.33333333333334,0)" xlink:href="#av"/><use transform="matrix(0.06172839506172839,0,0,0.06172839506172839,120.67901234567903,0)" xlink:href="#aa"/><use transform="matrix(0.06172839506172839,0,0,0.06172839506172839,133.0246913580247,0)" xlink:href="#ac"/><use transform="matrix(0.06172839506172839,0,0,0.06172839506172839,145.37037037037038,0)" xlink:href="#Y"/><use transform="matrix(0.06172839506172839,0,0,0.06172839506172839,157.71604938271605,0)" xlink:href="#ab"/><use transform="matrix(0.06172839506172839,0,0,0.06172839506172839,165.06172839506172,0)" xlink:href="#ar"/></g><g id="p"><use transform="matrix(0.06172839506172839,0,0,0.06172839506172839,0,0)" xlink:href="#U"/><use transform="matrix(0.06172839506172839,0,0,0.06172839506172839,14.814814814814813,0)" xlink:href="#V"/></g><path fill="#333" d="M14 0l48-248h34L48 0H14" id="aw"/><path fill="#333" d="M173 0L80-213 41 0H11l48-248h37l94 214 40-214h30L212 0h-39" id="ax"/><path fill="#333" d="M151-220L108 0H75l42-220H32l6-28h203l-5 28h-85" id="ay"/><g id="q"><use transform="matrix(0.05555555555555552,0,0,0.05555555555555552,0,0)" xlink:href="#aw"/><use transform="matrix(0.05555555555555552,0,0,0.05555555555555552,5.555555555555552,0)" xlink:href="#ax"/><use transform="matrix(0.05555555555555552,0,0,0.05555555555555552,19.94444444444443,0)" xlink:href="#ay"/></g><path fill="#333" d="M119 0H84L31-248h34l41 218 126-218h36" id="az"/><path fill="#333" d="M187 0l-14-72H61L19 0h-37l149-248h38L221 0h-34zm-19-99l-22-123L76-99h92" id="aA"/><path fill="#333" d="M249-183c0 48-29 72-75 77L221 0h-36l-43-103H65L45 0H11l48-248c83 2 190-17 190 65zm-34 3c0-55-74-39-127-41l-18 92c63-1 145 13 145-51" id="aB"/><path fill="#333" d="M125-24c46 0 70-25 89-51l25 16C214-24 183 4 123 4 8 4-5-146 60-208c32-50 158-61 191-5 5 7 9 14 11 22l-32 10c-9-28-33-43-69-43-74 0-108 51-108 125 0 46 24 75 72 75" id="aC"/><path fill="#333" d="M179 0l23-115H67L45 0H11l48-248h34L72-143h135l21-105h32L212 0h-33" id="aD"/><path fill="#333" d="M17-49c1-102 45-165 103-212h30C92-210 49-145 49-46 49 4 63 43 85 75H54C30 43 18 2 17-49" id="aE"/><path fill="#333" d="M149-56L138 0h-32l11-56H2l5-25 144-167h35L154-81h33l-5 25h-33zm-4-147L40-81h82" id="aF"/><path fill="#333" d="M16-82c0-90 25-169 113-169 48 0 68 33 68 82C197-79 170 4 84 4 37 4 16-31 16-82zm30 5c0 32 11 55 40 55 69 0 76-79 80-149 2-32-10-55-39-55-69 0-81 81-81 149" id="aG"/><path fill="#333" d="M98-137C97-35 54 29-4 75h-31C23 23 67-41 67-140c0-50-15-89-37-121h31c24 32 36 73 37 124" id="aH"/><g id="r"><use transform="matrix(0.05555555555555552,0,0,0.05555555555555552,0,0)" xlink:href="#az"/><use transform="matrix(0.05555555555555552,0,0,0.05555555555555552,12.222222222222214,0)" xlink:href="#aA"/><use transform="matrix(0.05555555555555552,0,0,0.05555555555555552,25.55555555555554,0)" xlink:href="#aB"/><use transform="matrix(0.05555555555555552,0,0,0.05555555555555552,39.944444444444414,0)" xlink:href="#aC"/><use transform="matrix(0.05555555555555552,0,0,0.05555555555555552,54.33333333333329,0)" xlink:href="#aD"/><use transform="matrix(0.05555555555555552,0,0,0.05555555555555552,68.72222222222217,0)" xlink:href="#aA"/><use transform="matrix(0.05555555555555552,0,0,0.05555555555555552,82.0555555555555,0)" xlink:href="#aB"/><use transform="matrix(0.05555555555555552,0,0,0.05555555555555552,96.44444444444437,0)" xlink:href="#aE"/><use transform="matrix(0.05555555555555552,0,0,0.05555555555555552,103.05555555555547,0)" xlink:href="#aF"/><use transform="matrix(0.05555555555555552,0,0,0.05555555555555552,114.16666666666656,0)" xlink:href="#aG"/><use transform="matrix(0.05555555555555552,0,0,0.05555555555555552,125.27777777777767,0)" xlink:href="#aH"/></g><path fill="#333" d="M151-85c6-55-69-56-94-29H26l34-134h141l-5 27H84l-20 79c41-34 127-11 121 53C199 13 30 38 8-54l29-8C52 0 159-13 151-85" id="aI"/><g id="s"><use transform="matrix(0.05555555555555552,0,0,0.05555555555555552,0,0)" xlink:href="#az"/><use transform="matrix(0.05555555555555552,0,0,0.05555555555555552,12.222222222222214,0)" xlink:href="#aA"/><use transform="matrix(0.05555555555555552,0,0,0.05555555555555552,25.55555555555554,0)" xlink:href="#aB"/><use transform="matrix(0.05555555555555552,0,0,0.05555555555555552,39.944444444444414,0)" xlink:href="#aC"/><use transform="matrix(0.05555555555555552,0,0,0.05555555555555552,54.33333333333329,0)" xlink:href="#aD"/><use transform="matrix(0.05555555555555552,0,0,0.05555555555555552,68.72222222222217,0)" xlink:href="#aA"/><use transform="matrix(0.05555555555555552,0,0,0.05555555555555552,82.0555555555555,0)" xlink:href="#aB"/><use transform="matrix(0.05555555555555552,0,0,0.05555555555555552,96.44444444444437,0)" xlink:href="#aE"/><use transform="matrix(0.05555555555555552,0,0,0.05555555555555552,103.05555555555547,0)" xlink:href="#aI"/><use transform="matrix(0.05555555555555552,0,0,0.05555555555555552,114.16666666666656,0)" xlink:href="#aG"/><use transform="matrix(0.05555555555555552,0,0,0.05555555555555552,125.27777777777767,0)" xlink:href="#aH"/></g><path fill="#333" d="M9 0l6-27h63l36-188-63 39 6-31 66-41h29L110-27h60l-5 27H9" id="aJ"/><g id="t"><use transform="matrix(0.05555555555555552,0,0,0.05555555555555552,0,0)" xlink:href="#az"/><use transform="matrix(0.05555555555555552,0,0,0.05555555555555552,12.222222222222214,0)" xlink:href="#aA"/><use transform="matrix(0.05555555555555552,0,0,0.05555555555555552,25.55555555555554,0)" xlink:href="#aB"/><use transform="matrix(0.05555555555555552,0,0,0.05555555555555552,39.944444444444414,0)" xlink:href="#aC"/><use transform="matrix(0.05555555555555552,0,0,0.05555555555555552,54.33333333333329,0)" xlink:href="#aD"/><use transform="matrix(0.05555555555555552,0,0,0.05555555555555552,68.72222222222217,0)" xlink:href="#aA"/><use transform="matrix(0.05555555555555552,0,0,0.05555555555555552,82.0555555555555,0)" xlink:href="#aB"/><use transform="matrix(0.05555555555555552,0,0,0.05555555555555552,96.44444444444437,0)" xlink:href="#aE"/><use transform="matrix(0.05555555555555552,0,0,0.05555555555555552,103.05555555555547,0)" xlink:href="#aJ"/><use transform="matrix(0.05555555555555552,0,0,0.05555555555555552,114.16666666666656,0)" xlink:href="#aG"/><use transform="matrix(0.05555555555555552,0,0,0.05555555555555552,125.27777777777767,0)" xlink:href="#aG"/><use transform="matrix(0.05555555555555552,0,0,0.05555555555555552,136.38888888888877,0)" xlink:href="#aH"/></g><path fill="#333" d="M123-251c66 0 92 69 53 113C138-94 73-75 39-27h128l-5 27H-2c17-92 123-93 159-163 14-28-1-64-36-62-29 2-46 17-54 41l-30-6c13-36 37-61 86-61" id="aK"/><g id="u"><use transform="matrix(0.05555555555555552,0,0,0.05555555555555552,0,0)" xlink:href="#az"/><use transform="matrix(0.05555555555555552,0,0,0.05555555555555552,12.222222222222214,0)" xlink:href="#aA"/><use transform="matrix(0.05555555555555552,0,0,0.05555555555555552,25.55555555555554,0)" xlink:href="#aB"/><use transform="matrix(0.05555555555555552,0,0,0.05555555555555552,39.944444444444414,0)" xlink:href="#aC"/><use transform="matrix(0.05555555555555552,0,0,0.05555555555555552,54.33333333333329,0)" xlink:href="#aD"/><use transform="matrix(0.05555555555555552,0,0,0.05555555555555552,68.72222222222217,0)" xlink:href="#aA"/><use transform="matrix(0.05555555555555552,0,0,0.05555555555555552,82.0555555555555,0)" xlink:href="#aB"/><use transform="matrix(0.05555555555555552,0,0,0.05555555555555552,96.44444444444437,0)" xlink:href="#aE"/><use transform="matrix(0.05555555555555552,0,0,0.05555555555555552,103.05555555555547,0)" xlink:href="#aK"/><use transform="matrix(0.05555555555555552,0,0,0.05555555555555552,114.16666666666656,0)" xlink:href="#aI"/><use transform="matrix(0.05555555555555552,0,0,0.05555555555555552,125.27777777777767,0)" xlink:href="#aI"/><use transform="matrix(0.05555555555555552,0,0,0.05555555555555552,136.38888888888877,0)" xlink:href="#aH"/></g><path fill="#333" d="M67-125c0 53 21 87 73 88 37 1 54-22 65-47l45 17C233-25 199 4 140 4 58 4 20-42 15-125 8-235 124-281 211-232c18 10 29 29 36 50l-46 12c-8-25-30-41-62-41-52 0-71 34-72 86" id="aL"/><path fill="#333" d="M110-194c64 0 96 36 96 99 0 64-35 99-97 99-61 0-95-36-95-99 0-62 34-99 96-99zm-1 164c35 0 45-28 45-65 0-40-10-65-43-65-34 0-45 26-45 65 0 36 10 65 43 65" id="aM"/><path fill="#333" d="M220-157c-53 9-28 100-34 157h-49v-107c1-27-5-49-29-50C55-147 81-57 75 0H25l-1-190h47c2 12-1 28 3 38 10-53 101-56 108 0 13-22 24-43 59-42 82 1 51 116 57 194h-49v-107c-1-25-5-48-29-50" id="aN"/><path fill="#333" d="M115-3C79 11 28 4 28-45v-112H4v-33h27l15-45h31v45h36v33H77v99c-1 23 16 31 38 25v30" id="aO"/><g id="v"><use transform="matrix(0.0987654320987654,0,0,0.0987654320987654,0,0)" xlink:href="#aL"/><use transform="matrix(0.0987654320987654,0,0,0.0987654320987654,25.58024691358024,0)" xlink:href="#aM"/><use transform="matrix(0.0987654320987654,0,0,0.0987654320987654,47.20987654320986,0)" xlink:href="#aN"/><use transform="matrix(0.0987654320987654,0,0,0.0987654320987654,78.81481481481478,0)" xlink:href="#aN"/><use transform="matrix(0.0987654320987654,0,0,0.0987654320987654,110.41975308641972,0)" xlink:href="#O"/><use transform="matrix(0.0987654320987654,0,0,0.0987654320987654,130.1728395061728,0)" xlink:href="#P"/><use transform="matrix(0.0987654320987654,0,0,0.0987654320987654,151.80246913580243,0)" xlink:href="#aO"/></g><g id="w"><use transform="matrix(0.06172839506172839,0,0,0.06172839506172839,0,0)" xlink:href="#U"/><use transform="matrix(0.06172839506172839,0,0,0.06172839506172839,14.814814814814813,0)" xlink:href="#V"/><use transform="matrix(0.06172839506172839,0,0,0.06172839506172839,29.629629629629626,0)" xlink:href="#W"/><use transform="matrix(0.06172839506172839,0,0,0.06172839506172839,35.80246913580247,0)" xlink:href="#X"/><use transform="matrix(0.06172839506172839,0,0,0.06172839506172839,49.32098765432099,0)" xlink:href="#V"/></g><path fill="#333" d="M11 0l48-248h184l-5 28H87l-15 79h140l-5 27H67L50-27h158l-5 27H11" id="aP"/><path fill="#333" d="M176 0l-54-107L30 0H-7l115-131-60-117h35l48 97 83-97h37L146-129 211 0h-35" id="aQ"/><g id="x"><use transform="matrix(0.05555555555555552,0,0,0.05555555555555552,0,0)" xlink:href="#ay"/><use transform="matrix(0.05555555555555552,0,0,0.05555555555555552,12.166666666666659,0)" xlink:href="#aP"/><use transform="matrix(0.05555555555555552,0,0,0.05555555555555552,25.499999999999986,0)" xlink:href="#aQ"/><use transform="matrix(0.05555555555555552,0,0,0.05555555555555552,38.833333333333314,0)" xlink:href="#ay"/><use transform="matrix(0.05555555555555552,0,0,0.05555555555555552,50.99999999999997,0)" xlink:href="#aE"/><use transform="matrix(0.05555555555555552,0,0,0.05555555555555552,57.611111111111086,0)" xlink:href="#aJ"/><use transform="matrix(0.05555555555555552,0,0,0.05555555555555552,68.72222222222219,0)" xlink:href="#aG"/><use transform="matrix(0.05555555555555552,0,0,0.05555555555555552,79.83333333333329,0)" xlink:href="#aG"/><use transform="matrix(0.05555555555555552,0,0,0.05555555555555552,90.94444444444439,0)" xlink:href="#aG"/><use transform="matrix(0.05555555555555552,0,0,0.05555555555555552,102.05555555555549,0)" xlink:href="#aG"/><use transform="matrix(0.05555555555555552,0,0,0.05555555555555552,113.16666666666659,0)" xlink:href="#aH"/></g><g id="z"><use transform="matrix(0.05555555555555552,0,0,0.05555555555555552,0,0)" xlink:href="#aw"/><use transform="matrix(0.05555555555555552,0,0,0.05555555555555552,5.555555555555552,0)" xlink:href="#ax"/><use transform="matrix(0.05555555555555552,0,0,0.05555555555555552,19.94444444444443,0)" xlink:href="#ay"/></g><g id="A"><use transform="matrix(0.06172839506172839,0,0,0.06172839506172839,0,0)" xlink:href="#Y"/><use transform="matrix(0.06172839506172839,0,0,0.06172839506172839,12.345679012345679,0)" xlink:href="#Z"/><use transform="matrix(0.06172839506172839,0,0,0.06172839506172839,23.45679012345679,0)" xlink:href="#aa"/><use transform="matrix(0.06172839506172839,0,0,0.06172839506172839,35.80246913580247,0)" xlink:href="#ab"/><use transform="matrix(0.06172839506172839,0,0,0.06172839506172839,43.148148148148145,0)" xlink:href="#ac"/><use transform="matrix(0.06172839506172839,0,0,0.06172839506172839,55.49382716049382,0)" xlink:href="#ad"/><use transform="matrix(0.06172839506172839,0,0,0.06172839506172839,60.37037037037037,0)" xlink:href="#ae"/></g><path fill="#333" d="M115-194c53 0 69 39 70 98 0 66-23 100-70 100C84 3 66-7 56-30L54 0H23l1-261h32v101c10-23 28-34 59-34zm-8 174c40 0 45-34 45-75 0-40-5-75-45-74-42 0-51 32-51 76 0 43 10 73 51 73" id="aR"/><path fill="#333" d="M179-190L93 31C79 59 56 82 12 73V49c39 6 53-20 64-50L1-190h34L92-34l54-156h33" id="aS"/><g id="B"><use transform="matrix(0.06172839506172839,0,0,0.06172839506172839,0,0)" xlink:href="#aR"/><use transform="matrix(0.06172839506172839,0,0,0.06172839506172839,12.345679012345679,0)" xlink:href="#au"/><use transform="matrix(0.06172839506172839,0,0,0.06172839506172839,24.691358024691358,0)" xlink:href="#ae"/><use transform="matrix(0.06172839506172839,0,0,0.06172839506172839,37.03703703703704,0)" xlink:href="#aS"/></g><g id="C"><use transform="matrix(0.06172839506172839,0,0,0.06172839506172839,0,0)" xlink:href="#as"/><use transform="matrix(0.06172839506172839,0,0,0.06172839506172839,12.345679012345679,0)" xlink:href="#au"/><use transform="matrix(0.06172839506172839,0,0,0.06172839506172839,24.691358024691358,0)" xlink:href="#Z"/><use transform="matrix(0.06172839506172839,0,0,0.06172839506172839,35.80246913580247,0)" xlink:href="#ak"/><use transform="matrix(0.06172839506172839,0,0,0.06172839506172839,41.97530864197531,0)" xlink:href="#ac"/><use transform="matrix(0.06172839506172839,0,0,0.06172839506172839,54.32098765432099,0)" xlink:href="#ad"/><use transform="matrix(0.06172839506172839,0,0,0.06172839506172839,59.19753086419753,0)" xlink:href="#ae"/></g><path fill="#333" d="M24 0v-248h52v208h133V0H24" id="aT"/><path fill="#333" d="M147 0L96-86 75-71V0H25v-261h50v150l67-79h53l-66 74L201 0h-54" id="aU"/><g id="D"><use transform="matrix(0.0987654320987654,0,0,0.0987654320987654,0,0)" xlink:href="#aT"/><use transform="matrix(0.0987654320987654,0,0,0.0987654320987654,21.629629629629623,0)" xlink:href="#N"/><use transform="matrix(0.0987654320987654,0,0,0.0987654320987654,31.506172839506164,0)" xlink:href="#aU"/><use transform="matrix(0.0987654320987654,0,0,0.0987654320987654,51.259259259259245,0)" xlink:href="#O"/></g><path fill="#333" d="M24-248c93 1 206-16 204 79-1 75-69 88-152 82V0H24v-248zm52 121c47 0 100 7 100-41 0-47-54-39-100-39v80" id="aV"/><path fill="#333" d="M140-251c80 0 125 45 125 126S219 4 139 4C58 4 15-44 15-125s44-126 125-126zm-1 214c52 0 73-35 73-88 0-50-21-86-72-86-52 0-73 35-73 86s22 88 72 88" id="aW"/><path fill="#333" d="M169-182c-1-43-94-46-97-3 18 66 151 10 154 114 3 95-165 93-204 36-6-8-10-19-12-30l50-8c3 46 112 56 116 5-17-69-150-10-154-114-4-87 153-88 188-35 5 8 8 18 10 28" id="aX"/><path fill="#333" d="M136-208V0H84v-208H4v-40h212v40h-80" id="aY"/><g id="E"><use transform="matrix(0.0987654320987654,0,0,0.0987654320987654,0,0)" xlink:href="#aV"/><use transform="matrix(0.0987654320987654,0,0,0.0987654320987654,23.703703703703695,0)" xlink:href="#aW"/><use transform="matrix(0.0987654320987654,0,0,0.0987654320987654,51.358024691358004,0)" xlink:href="#aX"/><use transform="matrix(0.0987654320987654,0,0,0.0987654320987654,75.0617283950617,0)" xlink:href="#aY"/></g><g id="F"><use transform="matrix(0.06172839506172839,0,0,0.06172839506172839,0,0)" xlink:href="#U"/><use transform="matrix(0.06172839506172839,0,0,0.06172839506172839,14.814814814814813,0)" xlink:href="#V"/></g><g id="G"><use transform="matrix(0.06172839506172839,0,0,0.06172839506172839,0,0)" xlink:href="#X"/><use transform="matrix(0.06172839506172839,0,0,0.06172839506172839,13.518518518518517,0)" xlink:href="#V"/></g><g id="H"><use transform="matrix(0.05555555555555552,0,0,0.05555555555555552,0,0)" xlink:href="#ay"/><use transform="matrix(0.05555555555555552,0,0,0.05555555555555552,12.166666666666659,0)" xlink:href="#aP"/><use transform="matrix(0.05555555555555552,0,0,0.05555555555555552,25.499999999999986,0)" xlink:href="#aQ"/><use transform="matrix(0.05555555555555552,0,0,0.05555555555555552,38.833333333333314,0)" xlink:href="#ay"/><use transform="matrix(0.05555555555555552,0,0,0.05555555555555552,50.99999999999997,0)" xlink:href="#aE"/><use transform="matrix(0.05555555555555552,0,0,0.05555555555555552,57.611111111111086,0)" xlink:href="#aJ"/><use transform="matrix(0.05555555555555552,0,0,0.05555555555555552,68.72222222222219,0)" xlink:href="#aG"/><use transform="matrix(0.05555555555555552,0,0,0.05555555555555552,79.83333333333329,0)" xlink:href="#aG"/><use transform="matrix(0.05555555555555552,0,0,0.05555555555555552,90.94444444444439,0)" xlink:href="#aG"/><use transform="matrix(0.05555555555555552,0,0,0.05555555555555552,102.05555555555549,0)" xlink:href="#aG"/><use transform="matrix(0.05555555555555552,0,0,0.05555555555555552,113.16666666666659,0)" xlink:href="#aH"/></g><g id="I"><use transform="matrix(0.06172839506172839,0,0,0.06172839506172839,0,0)" xlink:href="#ak"/><use transform="matrix(0.06172839506172839,0,0,0.06172839506172839,6.172839506172839,0)" xlink:href="#ad"/><use transform="matrix(0.06172839506172839,0,0,0.06172839506172839,11.049382716049383,0)" xlink:href="#ak"/><use transform="matrix(0.06172839506172839,0,0,0.06172839506172839,17.22222222222222,0)" xlink:href="#ar"/><use transform="matrix(0.06172839506172839,0,0,0.06172839506172839,22.098765432098766,0)" xlink:href="#aa"/></g><g id="K"><use transform="matrix(0.06172839506172839,0,0,0.06172839506172839,0,0)" xlink:href="#aR"/><use transform="matrix(0.06172839506172839,0,0,0.06172839506172839,12.345679012345679,0)" xlink:href="#au"/><use transform="matrix(0.06172839506172839,0,0,0.06172839506172839,24.691358024691358,0)" xlink:href="#ae"/><use transform="matrix(0.06172839506172839,0,0,0.06172839506172839,37.03703703703704,0)" xlink:href="#aS"/></g></defs></g></svg>